<?xml version="1.0" standalone="no"?>
<!DOCTYPE svg PUBLIC "-//W3C//DTD SVG 20010904//EN"
 "http://www.w3.org/TR/2001/REC-SVG-20010904/DTD/svg10.dtd">
<svg version="1.0" xmlns="http://www.w3.org/2000/svg"
 width="512.000000pt" height="512.000000pt" viewBox="0 0 512.000000 512.000000"
 preserveAspectRatio="xMidYMid meet">

<g transform="translate(0.000000,512.000000) scale(0.100000,-0.100000)"
fill="#000000" stroke="none">
<path d="M2330 5108 c-188 -17 -463 -76 -605 -129 l-55 -20 0 -753 0 -753 80
-7 c321 -27 615 -242 740 -544 204 -489 -65 -1049 -575 -1197 -47 -13 -122
-28 -165 -31 l-80 -7 0 -752 0 -752 25 -11 c55 -25 275 -84 403 -107 702 -130
1424 40 1997 470 316 237 578 553 755 910 160 324 236 605 262 972 24 336 -30
722 -147 1039 -53 144 -183 403 -264 524 -357 536 -892 921 -1495 1075 -299
76 -587 100 -876 73z"/>
<path d="M1170 2697 c0 -339 5 -377 56 -479 36 -71 132 -169 203 -207 204
-109 446 -70 601 95 64 69 111 158 129 242 7 32 11 174 11 357 l0 305 -500 0
-500 0 0 -313z m670 -149 c0 -98 -4 -131 -19 -163 -50 -110 -174 -138 -261
-58 -51 45 -60 80 -60 226 l0 117 170 0 170 0 0 -122z"/>
</g>
</svg>
